<?xml version="1.0" encoding="UTF-8" standalone="no"?>
<!-- Created with Inkscape (http://www.inkscape.org/) -->

<svg
   width="512"
   height="512"
   viewBox="0 0 512 512"
   version="1.1"
   id="svg1"
   inkscape:version="1.3.2 (091e20e, 2023-11-25)"
   sodipodi:docname="icon.svg"
   xmlns:inkscape="http://www.inkscape.org/namespaces/inkscape"
   xmlns:sodipodi="http://sodipodi.sourceforge.net/DTD/sodipodi-0.dtd"
   xmlns:xlink="http://www.w3.org/1999/xlink"
   xmlns="http://www.w3.org/2000/svg"
   xmlns:svg="http://www.w3.org/2000/svg">
  <sodipodi:namedview
     id="namedview1"
     pagecolor="#ffffff"
     bordercolor="#666666"
     borderopacity="1.0"
     inkscape:showpageshadow="2"
     inkscape:pageopacity="0.0"
     inkscape:pagecheckerboard="0"
     inkscape:deskcolor="#d1d1d1"
     inkscape:document-units="px"
     inkscape:zoom="0.2"
     inkscape:cx="337.5"
     inkscape:cy="267.5"
     inkscape:window-width="1920"
     inkscape:window-height="1135"
     inkscape:window-x="0"
     inkscape:window-y="0"
     inkscape:window-maximized="1"
     inkscape:current-layer="layer1" />
  <defs
     id="defs1">
    <linearGradient
       id="linearGradient17"
       inkscape:collect="always">
      <stop
         style="stop-color:#8f8f8f;stop-opacity:1;"
         offset="0"
         id="stop16" />
      <stop
         style="stop-color:#ececec;stop-opacity:1;"
         offset="1"
         id="stop17" />
    </linearGradient>
    <linearGradient
       id="linearGradient13"
       inkscape:collect="always">
      <stop
         style="stop-color:#010101;stop-opacity:1;"
         offset="0"
         id="stop13" />
      <stop
         style="stop-color:#3e3e3e;stop-opacity:1;"
         offset="1"
         id="stop14" />
    </linearGradient>
    <linearGradient
       id="linearGradient12"
       inkscape:collect="always">
      <stop
         style="stop-color:#aaaaaa;stop-opacity:1;"
         offset="0"
         id="stop11" />
      <stop
         style="stop-color:#ffffff;stop-opacity:1;"
         offset="1"
         id="stop12" />
    </linearGradient>
    <linearGradient
       id="linearGradient9"
       inkscape:collect="always">
      <stop
         style="stop-color:#026800;stop-opacity:1;"
         offset="0"
         id="stop9" />
      <stop
         style="stop-color:#04cd00;stop-opacity:1;"
         offset="1"
         id="stop10" />
    </linearGradient>
    <linearGradient
       id="linearGradient1"
       inkscape:collect="always">
      <stop
         style="stop-color:#014200;stop-opacity:1;"
         offset="0"
         id="stop1" />
      <stop
         style="stop-color:#66ff66;stop-opacity:1;"
         offset="1"
         id="stop2" />
    </linearGradient>
    <linearGradient
       inkscape:collect="always"
       xlink:href="#linearGradient1"
       id="linearGradient2"
       x1="244.45538"
       y1="307.31656"
       x2="244.45538"
       y2="214.34518"
       gradientUnits="userSpaceOnUse" />
    <linearGradient
       inkscape:collect="always"
       xlink:href="#linearGradient9"
       id="linearGradient10"
       x1="343.39194"
       y1="307.31656"
       x2="343.39124"
       y2="214.34494"
       gradientUnits="userSpaceOnUse" />
    <linearGradient
       inkscape:collect="always"
       xlink:href="#linearGradient12"
       id="linearGradient11"
       gradientUnits="userSpaceOnUse"
       x1="343.39194"
       y1="307.31656"
       x2="343.39124"
       y2="214.34494"
       gradientTransform="matrix(0.74806551,0,0,0.75291495,86.512097,64.447413)" />
    <linearGradient
       inkscape:collect="always"
       xlink:href="#linearGradient13"
       id="linearGradient14"
       x1="224.3298"
       y1="475.1716"
       x2="319.0217"
       y2="56.739658"
       gradientUnits="userSpaceOnUse"
       gradientTransform="matrix(1.0294138,0,0,1.0294138,-7.4120351,-7.6943149)" />
    <linearGradient
       inkscape:collect="always"
       xlink:href="#linearGradient12"
       id="linearGradient15"
       gradientUnits="userSpaceOnUse"
       gradientTransform="matrix(0.22741862,0,0,0.22889289,271.20937,200.74214)"
       x1="343.39194"
       y1="307.31656"
       x2="343.39124"
       y2="214.34494" />
    <linearGradient
       inkscape:collect="always"
       xlink:href="#linearGradient17"
       id="linearGradient16"
       gradientUnits="userSpaceOnUse"
       gradientTransform="matrix(0.22741862,0,0,0.22889289,265.29769,200.74214)"
       x1="343.39194"
       y1="307.31656"
       x2="343.39124"
       y2="214.34494" />
  </defs>
  <g
     inkscape:label="Layer 1"
     inkscape:groupmode="layer"
     id="layer1">
    <circle
       style="fill:#03c400;fill-opacity:1"
       id="path12-9"
       cx="251.99216"
       cy="261.58902"
       r="229.24188" />
    <path
       id="path12"
       style="fill:url(#linearGradient14);stroke-width:0.971774"
       d="m 244.63281,38.042969 c -4.28065,0.190496 -8.56075,0.393593 -12.82755,0.798932 -3.48054,0.292578 -6.95186,0.710833 -10.41506,1.15977 -3.99208,0.554107 -7.97139,1.185955 -11.93033,1.942761 -3.33188,0.628235 -6.64871,1.348851 -9.95079,2.117713 -3.88782,0.928601 -7.75309,1.94178 -11.58827,3.068843 -3.25391,0.946158 -6.48339,1.984713 -9.69258,3.072387 -3.7766,1.302594 -7.52403,2.683047 -11.22898,4.177895 -3.11292,1.245172 -6.19227,2.580126 -9.24933,3.956332 -3.66007,1.678621 -7.28563,3.427869 -10.85504,5.292126 -3.00292,1.557035 -5.9643,3.198936 -8.89756,4.88305 -3.44995,2.00672 -6.85229,4.090755 -10.19455,6.272382 -2.80722,1.819913 -5.5617,3.72487 -8.28713,5.66464 -3.23404,2.33571 -6.42291,4.730847 -9.53239,7.230525 -2.66376,2.124394 -5.26846,4.326499 -7.83727,6.564531 -3.015616,2.659054 -5.968136,5.386171 -8.84298,8.197004 -2.407967,2.35616 -4.764727,4.76896 -7.067466,7.22801 -2.740354,2.93922 -5.405656,5.94466 -7.991447,9.02078 -2.17723,2.6085 -4.310558,5.25794 -6.371765,7.9592 -2.483148,3.24001 -4.854358,6.56105 -7.168966,9.92305 -2.513511,3.72576 -4.947746,7.50638 -7.237038,11.37494 -1.824549,3.01517 -3.526066,6.10553 -5.203446,9.20431 -1.878299,3.54575 -3.678432,7.13028 -5.370805,10.76865 -1.420633,3.03815 -2.759091,6.11739 -4.043765,9.21526 -1.518862,3.71132 -2.950081,7.45597 -4.275756,11.24073 -1.105632,3.162 -2.137964,6.35261 -3.104606,9.55982 -1.147571,3.84234 -2.193746,7.71202 -3.141797,11.60836 -0.777894,3.25555 -1.498171,6.52837 -2.135644,9.81443 -0.763364,3.93468 -1.414472,7.88807 -1.972515,11.85697 -0.574092,4.27439 -1.071624,8.56161 -1.386307,12.86389 -0.333722,3.76537 -0.493732,7.54537 -0.621226,11.32233 -0.09933,4.00655 -0.113436,8.01312 -0.0058,12.01967 0.08403,3.34415 0.2572,6.68868 0.490227,10.02559 0.294302,3.96316 0.676495,7.9175 1.176273,11.8602 0.413815,3.32047 0.917765,6.63212 1.478401,9.93081 0.683132,3.91562 1.457114,7.81288 2.34385,11.6876 0.739433,3.26564 1.572177,6.51267 2.45557,9.74216 1.076216,3.86173 2.244783,7.6952 3.519136,11.49624 1.067086,3.17503 2.210089,6.3275 3.415179,9.45275 1.44,3.70786 2.970435,7.37783 4.601237,11.00589 1.377673,3.05773 2.827978,6.08579 4.33599,9.08125 1.813244,3.57921 3.720938,7.10744 5.717091,10.58792 1.697199,2.93507 3.450727,5.84142 5.275956,8.69887 2.136703,3.35953 4.374151,6.65103 6.683425,9.89411 2.547593,3.5393 5.169954,7.02747 7.929586,10.4052 2.340466,2.94994 4.817188,5.79107 7.309499,8.61235 2.689181,2.98596 5.436968,5.91624 8.276469,8.76 2.398955,2.41264 4.862077,4.76523 7.366301,7.06837 2.966811,2.71286 6.000871,5.34823 9.103471,7.9047 3.2587,2.66137 6.56668,5.26736 9.97852,7.73099 3.18735,2.37987 6.48307,4.61228 9.79953,6.8067 3.37468,2.19258 6.79056,4.31821 10.27364,6.33474 2.92189,1.70151 5.89243,3.32399 8.8844,4.89866 3.54254,1.84096 7.12463,3.60092 10.75722,5.25749 3.07607,1.4136 6.1953,2.73846 9.32975,4.01661 3.70665,1.48764 7.44442,2.89136 11.22276,4.18661 3.20176,1.10712 6.43671,2.1254 9.68362,3.09128 3.83669,1.11964 7.69499,2.15738 11.58429,3.07865 3.29648,0.78981 6.6172,1.48815 9.94393,2.13767 3.96051,0.74963 7.9361,1.40674 11.9298,1.95332 3.32689,0.45762 6.66811,0.83024 10.01107,1.14958 4.01498,0.3605 8.03592,0.62931 12.06416,0.78509 3.3573,0.13264 6.72042,0.17996 10.08023,0.17073 4.03116,-0.0308 8.05932,-0.15217 12.08383,-0.38789 3.35374,-0.19344 6.70518,-0.47048 10.04727,-0.80867 4.00842,-0.42255 8.00499,-0.9336 11.98688,-1.5594 3.31818,-0.51718 6.62559,-1.12 9.91815,-1.78017 3.94735,-0.80903 7.87462,-1.70472 11.77589,-2.71344 3.25055,-0.83752 6.48179,-1.76015 9.69417,-2.73336 3.8501,-1.18767 7.67049,-2.46357 11.45504,-3.84627 3.15129,-1.1468 6.2745,-2.37821 9.37333,-3.65965 3.68389,-1.54327 7.33119,-3.1681 10.93106,-4.89867 3.05404,-1.45708 6.06793,-3.00326 9.05468,-4.59328 3.51353,-1.89524 6.98558,-3.86302 10.39745,-5.93612 2.89209,-1.74887 5.7379,-3.57862 8.55281,-5.44885 3.28274,-2.20844 6.5159,-4.48666 9.68023,-6.86197 2.73541,-2.03418 5.40966,-4.15388 8.05146,-6.30773 3.10226,-2.5591 6.14237,-5.18975 9.10884,-7.90523 2.50913,-2.29947 4.96899,-4.65706 7.37278,-7.06631 2.83881,-2.84581 5.59235,-5.77203 8.28066,-8.76021 2.83322,-3.1892 5.61661,-6.42712 8.25389,-9.78173 2.45555,-3.02609 4.77603,-6.16088 7.05733,-9.31923 2.30994,-3.24295 4.5459,-6.53579 6.68322,-9.89523 1.82471,-2.85981 3.58073,-5.76667 5.27711,-8.70422 1.99688,-3.48028 3.90251,-7.00982 5.71647,-10.58884 1.52029,-3.02787 2.9905,-6.08476 4.37574,-9.17701 1.64872,-3.65778 3.17869,-7.36517 4.63533,-11.10328 1.5503,-4.06528 3.02623,-8.16129 4.32697,-12.3142 1.16176,-3.53058 2.16491,-7.11293 3.13965,-10.69863 1.00778,-3.84586 1.93365,-7.71088 2.74005,-11.60418 0.69831,-3.30736 1.29559,-6.63822 1.84542,-9.97326 0.62963,-3.95854 1.16151,-7.93008 1.5859,-11.91591 0.35041,-3.32717 0.62464,-6.66526 0.8321,-10.00431 0.23422,-3.96707 0.36682,-7.93743 0.39384,-11.91134 0.16743,-20.22301 -2.5244,-40.46232 -7.86528,-59.965 -8.68936,-31.81142 -24.602,-61.60921 -46.14318,-86.57288 C 401.44961,90.396771 372.98409,69.639008 341.38738,56.188069 312.84918,43.998632 281.79286,37.725807 250.75914,37.94334 c -2.04211,0.03321 -4.08422,0.06642 -6.12633,0.09963 z" />
    <g
       id="g17">
      <path
         id="path1"
         d="m 145.51882,214.34519 a 33.419531,46.485997 0 0 0 -33.4198,46.48569 33.419531,46.485997 0 0 0 33.4198,46.48567 h 197.87312 v -92.97136 z"
         style="stroke-width:0.749705;fill:url(#linearGradient2)" />
      <ellipse
         style="fill:url(#linearGradient10);stroke-width:0.749705"
         id="path1-5"
         cx="343.39124"
         cy="260.83093"
         rx="33.419533"
         ry="46.485996" />
      <ellipse
         style="fill:url(#linearGradient11);stroke-width:0.562643"
         id="path1-5-1"
         cx="343.39124"
         cy="260.83093"
         rx="25"
         ry="35" />
      <path
         id="path1-5-1-6-0"
         style="fill:url(#linearGradient16);stroke-width:0.171049"
         d="M 343.39062 249.80469 A 7.600224 10.640313 0 0 0 335.79102 260.44531 A 7.600224 10.640313 0 0 0 343.39062 271.08398 L 349.30273 271.08398 L 349.30273 267.10938 A 7.600224 10.640313 0 0 0 350.99219 260.44531 A 7.600224 10.640313 0 0 0 349.30273 253.75977 L 349.30273 249.80469 L 343.39062 249.80469 z " />
      <ellipse
         style="fill:url(#linearGradient15);stroke-width:0.171049"
         id="path1-5-1-6"
         cx="349.30292"
         cy="260.44449"
         rx="7.600224"
         ry="10.640313" />
    </g>
  </g>
</svg>
